<svg version="1.1" viewBox="0 0 40 40" xmlns="http://www.w3.org/2000/svg">
 <path d="m35.312 9.75-14.375-8.0625c-0.5625-0.3125-1.25-0.3125-1.8125 0l-14.375 8.0625c-0.625 0.3125-1 0.9375-1 1.625v17.312c0 0.6875 0.375 1.3125 0.9375 1.625l14.375 8.0625c0.5625 0.3125 1.25 0.3125 1.8125 0l14.375-8.0625c0.5625-0.3125 0.9375-0.9375 0.9375-1.625v-17.312c0.0625-0.6875-0.3125-1.3125-0.875-1.625zm-5.9375-1.9375 1.5 0.8125-1.5 1zm-5-2.75 2.875 1.625-2.875 1.5zm-1.25 3.8125-1.875 1-0.625-0.3125c-0.375-0.1875-0.875-0.1875-1.25 0.0625l-4.4375 2.75c-0.375 0.25-0.5625 0.625-0.5625 1.0625v2.0625l-3.125-1.75v-2.8125l4.4375-2.75 0.625 0.3125c0.375 0.1875 0.8125 0.1875 1.1875 0l5.625-3.0625zm-7.5 4.625 4.4375-2.75 0.625 0.3125c0.375 0.1875 0.8125 0.1875 1.1875 0l6.25-3.5v2.8125l-3.1875 2-0.625-0.3125c-0.375-0.1875-0.875-0.1875-1.25 0.0625l-4.4375 2.75c-0.375 0.25-0.5625 0.625-0.5625 1.0625v1.625l-2.5-1.375v-2.6875zm4.6875 5c-0.1875 0.125-0.4375 0.125-0.625 0l-0.3125-0.1875v-2.3125l4.4375-2.75 0.625 0.3125c0.375 0.1875 0.875 0.1875 1.25-0.0625l6.25-4v2.5zm12.812-8.5625 1.25 0.6875-1.25 0.6875zm-13.438-7.1875c0.1875-0.125 0.4375-0.125 0.625 0l2.5 1.4375-5.9375 3.25-0.625-0.3125c-0.375-0.1875-0.875-0.1875-1.25 0.0625l-4.4375 2.75c-0.375 0.25-0.5625 0.625-0.5625 1.0625v2.0625l-4.375-2.4375zm-14.375 26.438c-0.1875-0.125-0.3125-0.3125-0.3125-0.5625v-13.25l2.125 1.0625c0.1875 0.125 0.375 0.3125 0.375 0.5625v0.5625c-1 0.375-1.5 1.4375-1.125 2.375 0.375 1 1.4375 1.5 2.375 1.125s1.5-1.4375 1.125-2.375c-0.1875-0.5625-0.625-0.9375-1.125-1.125v-0.5625c0-0.6875-0.375-1.375-1.0625-1.6875l-2.6875-1.3125v-2.3125l14.062 7.875c0.0625 0.0625 0.1875 0.0625 0.3125 0.125v6.75l-5.3125-2.875c-0.1875-0.125-0.3125-0.3125-0.3125-0.5625v-1.25c1-0.375 1.5-1.4375 1.125-2.375s-1.4375-1.5-2.375-1.125c-1 0.375-1.5 1.4375-1.125 2.375 0.1875 0.5625 0.625 0.9375 1.125 1.125v1.25c0 0.6875 0.375 1.3125 1 1.625l5.875 3.1875v6.0625l-5.3125-2.875c-0.1875-0.125-0.3125-0.3125-0.3125-0.5625v-2.3125c0-0.6875-0.375-1.25-0.9375-1.625l-2.1875-1.25v-0.25c0-1.0625-0.8125-1.875-1.875-1.875s-1.875 0.8125-1.875 1.875 0.8125 1.875 1.875 1.875c0.5 0 0.9375-0.1875 1.3125-0.5l2.1875 1.3125c0.1875 0.125 0.3125 0.3125 0.3125 0.5625v2.3125c0 0.6875 0.375 1.3125 1 1.625l5.875 3.1875v1.6875zm3.4375-9.8125c0 0.375-0.25 0.625-0.625 0.625s-0.625-0.25-0.625-0.625 0.25-0.625 0.625-0.625 0.625 0.25 0.625 0.625zm3.75 0.625c0-0.375 0.25-0.625 0.625-0.625s0.625 0.25 0.625 0.625-0.25 0.625-0.625 0.625-0.625-0.25-0.625-0.625zm-3.125 5c0 0.375-0.25 0.625-0.625 0.625s-0.625-0.25-0.625-0.625 0.25-0.625 0.625-0.625 0.625 0.25 0.625 0.625zm25.312 4.1875-14.062 7.875v-5.4375l5.875-3.1875c0.625-0.3125 1-0.9375 1-1.625v-2.25c0-0.25 0.125-0.4375 0.375-0.5625l2.75-1.375c0.75 0.6875 1.9375 0.6875 2.625-0.0625s0.6875-1.9375-0.0625-2.625-1.9375-0.6875-2.625 0.0625c-0.375 0.3125-0.5625 0.75-0.5625 1.25v0.25l-2.75 1.375c-0.625 0.3125-1.0625 0.9375-1.0625 1.6875v2.25c0 0.25-0.125 0.4375-0.3125 0.5625l-5.25 2.8125v-6.0625l1.8125-0.9375c0.75 0.6875 1.9375 0.6875 2.625-0.0625s0.6875-1.9375-0.0625-2.625-1.9375-0.6875-2.625 0.0625c-0.3125 0.375-0.5 0.8125-0.5 1.3125v0.25l-1.25 0.625v-3.0625c0.125 0 0.1875-0.0625 0.3125-0.125l14.062-7.875v12.312l-3.0625 1.5625c-0.75-0.6875-1.9375-0.6875-2.625 0.0625s-0.6875 1.9375 0.0625 2.625 1.9375 0.6875 2.625-0.0625c0.3125-0.375 0.5-0.8125 0.5-1.3125v-0.25l2.5-1.25v3.25c0 0.25-0.125 0.4375-0.3125 0.5625zm-3.4375-7.9375c0-0.375 0.25-0.625 0.625-0.625s0.625 0.25 0.625 0.625-0.25 0.625-0.625 0.625-0.625-0.25-0.625-0.625zm-8.125 0.625c0-0.375 0.25-0.625 0.625-0.625s0.625 0.25 0.625 0.625-0.25 0.625-0.625 0.625-0.625-0.25-0.625-0.625zm8.125 5c0 0.375-0.25 0.625-0.625 0.625s-0.625-0.25-0.625-0.625 0.25-0.625 0.625-0.625 0.625 0.25 0.625 0.625z"/>
</svg>
